<?xml version="1.0" standalone="no"?>
<!DOCTYPE svg PUBLIC "-//W3C//DTD SVG 20010904//EN"
 "http://www.w3.org/TR/2001/REC-SVG-20010904/DTD/svg10.dtd">
<svg version="1.0" xmlns="http://www.w3.org/2000/svg"
 width="562.000000pt" height="562.000000pt" viewBox="0 0 562.000000 562.000000"
 preserveAspectRatio="xMidYMid meet">
<metadata>
Created by potrace 1.11, written by Peter Selinger 2001-2013
</metadata>
<g transform="translate(0.000000,562.000000) scale(0.100000,-0.100000)"
fill="#000000" stroke="none">
<path d="M2526 5611 c-3 -5 -19 -8 -36 -7 -16 1 -30 0 -30 -4 0 -3 -15 -6 -32
-7 -39 -3 -74 -8 -120 -19 -18 -4 -40 -8 -48 -9 -8 -1 -33 -5 -55 -10 -56 -13
-55 -12 -57 -15 -2 -1 -11 -3 -20 -6 -10 -2 -26 -6 -35 -8 -10 -3 -18 -5 -18
-6 0 -1 -11 -4 -25 -7 -38 -7 -40 -8 -97 -30 -10 -3 -20 -7 -23 -8 -64 -19
-100 -32 -119 -42 -14 -6 -28 -10 -33 -7 -4 3 -8 0 -8 -5 0 -6 -6 -11 -13 -11
-7 0 -29 -9 -50 -20 -20 -11 -37 -18 -37 -15 0 2 -20 -7 -44 -20 -25 -14 -51
-25 -60 -25 -8 0 -16 -4 -18 -8 -1 -4 -32 -23 -68 -41 -36 -19 -84 -46 -106
-62 -23 -16 -44 -25 -48 -22 -3 4 -6 2 -6 -3 0 -5 -15 -18 -32 -29 -60 -34
-243 -172 -279 -209 -11 -11 -19 -17 -19 -14 0 3 -36 -29 -80 -72 -44 -42 -82
-75 -85 -72 -3 3 -5 0 -5 -6 0 -7 -19 -31 -43 -55 -60 -61 -117 -125 -117
-132 0 -3 -10 -16 -23 -29 -23 -24 -29 -32 -107 -141 -27 -38 -55 -76 -60 -82
-6 -7 -7 -13 -3 -13 4 0 3 -4 -3 -8 -13 -8 -49 -64 -66 -104 -7 -16 -15 -28
-18 -28 -3 0 -14 -20 -25 -45 -11 -25 -23 -45 -27 -45 -5 0 -8 -9 -8 -20 0
-11 -5 -20 -11 -20 -5 0 -8 -4 -5 -9 3 -5 -1 -14 -9 -21 -8 -7 -15 -19 -15
-28 0 -8 -8 -24 -18 -35 -9 -11 -11 -17 -4 -13 7 4 1 -13 -13 -38 -14 -25 -23
-46 -19 -46 4 0 2 -6 -4 -13 -12 -13 -81 -205 -88 -242 -2 -11 -8 -31 -14 -45
-5 -14 -11 -34 -13 -45 -1 -11 -6 -26 -10 -32 -5 -7 -6 -17 -2 -22 3 -5 1 -12
-5 -16 -6 -4 -8 -11 -5 -16 4 -5 3 -15 -2 -21 -4 -7 -8 -20 -10 -28 -1 -8 -5
-31 -9 -50 -3 -19 -8 -46 -11 -60 -2 -14 -6 -36 -8 -50 -2 -14 -7 -50 -10 -80
-3 -30 -8 -71 -11 -90 -3 -19 -6 -74 -7 -122 -1 -48 -6 -84 -11 -81 -5 4 -6 0
-1 -7 13 -20 13 -133 0 -149 -7 -11 -7 -13 3 -7 8 5 12 0 12 -14 0 -13 -4 -19
-11 -14 -8 5 -8 1 0 -14 6 -11 10 -31 10 -44 -1 -13 2 -45 6 -73 4 -27 8 -70
10 -95 2 -25 7 -61 11 -80 4 -19 8 -47 8 -63 0 -15 4 -27 8 -27 4 0 8 -12 8
-27 0 -24 12 -73 60 -248 4 -16 16 -55 26 -85 10 -30 17 -58 16 -62 -1 -5 3
-8 8 -8 6 0 10 -6 10 -14 0 -7 8 -31 17 -52 9 -22 18 -43 19 -49 1 -5 23 -55
50 -110 26 -55 46 -103 46 -107 -1 -5 3 -8 8 -8 6 0 10 -6 10 -13 0 -7 13 -34
29 -59 16 -25 27 -49 24 -52 -4 -3 -2 -6 4 -6 6 0 16 -13 23 -30 7 -16 15 -30
19 -30 3 0 12 -13 19 -28 6 -16 20 -37 30 -48 19 -23 39 -52 49 -74 4 -8 17
-25 30 -38 13 -13 23 -26 23 -30 0 -4 12 -20 28 -37 15 -16 40 -48 57 -70 46
-62 355 -365 372 -365 3 0 10 -6 17 -13 7 -6 28 -23 46 -37 19 -14 46 -35 61
-48 15 -12 32 -22 38 -22 6 0 11 -4 11 -10 0 -5 6 -10 14 -10 8 0 16 -3 18 -7
3 -8 74 -57 113 -79 11 -6 43 -24 70 -40 28 -16 100 -53 160 -83 104 -50 124
-59 178 -80 12 -4 33 -13 47 -19 14 -6 54 -20 90 -32 36 -12 72 -24 80 -27 19
-8 41 -13 63 -15 9 -1 17 -7 17 -12 0 -5 3 -7 6 -4 3 3 29 -1 57 -8 79 -22
135 -34 180 -37 9 -1 17 -4 17 -7 0 -3 10 -6 23 -6 63 -4 107 -10 107 -14 0
-3 19 -5 43 -5 23 0 48 -3 55 -8 8 -6 12 -5 12 3 0 9 4 9 13 2 15 -13 465 -13
473 0 3 5 12 4 20 -3 8 -6 14 -7 14 -2 0 6 15 9 33 9 17 -1 50 2 72 7 22 5 58
11 80 12 22 2 41 5 43 6 1 1 7 3 12 4 6 1 11 3 13 4 1 1 17 4 35 7 18 2 41 8
51 14 10 5 21 7 24 3 3 -3 14 -2 24 2 10 5 27 10 38 12 29 6 38 9 55 16 8 4
26 9 40 11 14 3 26 5 28 7 1 1 5 2 10 3 4 1 13 5 20 9 6 5 12 5 12 1 0 -3 10
0 23 8 12 8 29 14 37 13 8 0 17 3 20 7 3 4 15 9 25 11 11 2 30 9 43 15 12 7
22 10 22 7 0 -3 11 2 25 11 14 9 25 13 25 9 0 -4 7 -2 15 5 8 7 15 9 15 4 0
-4 7 1 15 12 8 10 15 16 15 12 0 -8 242 110 250 122 3 4 15 10 28 14 12 4 22
12 22 17 0 5 4 9 10 9 5 0 35 17 66 38 31 20 70 46 88 57 17 10 37 27 44 37 7
10 18 18 24 18 22 0 266 214 362 319 17 18 45 48 61 66 17 17 44 49 60 71 17
21 38 46 48 56 9 10 17 21 17 26 0 4 12 18 25 31 14 13 25 29 25 37 0 8 4 14
8 14 4 0 23 25 41 55 18 30 37 55 42 55 5 0 9 5 9 10 0 6 25 53 55 105 30 53
55 100 55 105 0 6 4 10 10 10 5 0 7 7 4 15 -4 8 -2 15 3 15 6 0 27 39 48 88
22 48 42 89 46 92 3 3 5 13 3 23 -1 9 1 17 5 17 7 0 34 74 31 82 -1 2 5 16 14
32 8 16 13 33 10 38 -3 4 0 8 5 8 6 0 11 11 11 23 0 13 3 27 7 31 4 4 9 19 11
34 2 15 6 29 10 32 4 3 8 12 8 20 3 26 15 83 19 90 4 7 11 38 21 100 3 19 7
37 9 40 4 6 18 114 18 138 0 6 3 12 6 12 10 0 14 109 15 355 0 237 -5 332 -19
355 -6 9 -4 11 5 5 9 -5 11 -4 6 3 -9 15 -16 46 -21 97 -2 22 -9 54 -14 72 -5
17 -7 34 -4 37 3 2 1 11 -3 18 -4 7 -9 19 -10 28 -1 8 -5 26 -9 40 -3 14 -8
36 -11 50 -3 14 -9 39 -14 55 -52 162 -72 223 -79 240 -9 20 -23 56 -26 65 -1
6 -36 83 -66 146 -10 22 -19 45 -19 52 0 6 -7 15 -16 20 -9 5 -15 12 -15 16 2
8 -31 79 -39 86 -4 3 -13 20 -21 38 -8 17 -17 32 -21 32 -5 0 -8 7 -8 15 0 8
-4 15 -10 15 -5 0 -10 5 -10 12 0 6 -11 26 -26 45 -14 18 -22 33 -18 33 4 0
-3 8 -14 19 -12 10 -19 21 -15 24 3 4 -2 9 -11 13 -9 3 -16 12 -16 19 0 7 -3
15 -7 17 -10 4 -73 85 -73 92 0 3 -14 19 -30 34 -17 16 -30 32 -30 36 0 4 -12
19 -27 35 -16 15 -69 71 -120 123 -50 52 -111 110 -134 129 -23 19 -55 45 -70
59 -57 50 -232 178 -257 187 -9 4 -26 15 -36 25 -11 10 -26 18 -33 18 -7 0
-13 5 -13 10 0 6 -7 10 -15 10 -8 0 -15 5 -15 10 0 6 -9 10 -19 10 -11 0 -21
4 -23 9 -3 9 -315 162 -338 165 -6 1 -67 24 -95 37 -28 11 -178 57 -212 64
-41 9 -58 13 -58 16 0 1 -9 3 -20 5 -11 2 -38 7 -60 13 -57 14 -102 22 -160
28 -27 3 -52 8 -55 12 -7 9 -84 12 -362 16 -185 3 -248 0 -248 -8 0 -8 -3 -7
-9 2 -6 9 -11 10 -15 2 -4 -6 -12 -11 -17 -11 -6 0 -7 5 -4 10 3 6 4 10 1 10
-3 0 -7 -4 -10 -9z"/>
</g>
</svg>
